{"title":"The.Gallows.2015.WEBRiP.XViD.ReLeNTLesS","uid":12302878,"size":1039626147,"categoryP":"video","categoryS":"movies","magnet":"?xt=urn:btih:2506f9187bc7b368d180ba7e88192cec0afba594&amp;dn=The.Gallows.2015.WEBRiP.XViD.ReLeNTLesS&amp;tr=udp%3A%2F%2Ftracker.openbittorrent.com%3A80&amp;tr=udp%3A%2F%2Fopen.demonii.com%3A1337&amp;tr=udp%3A%2F%2Ftracker.coppersurfer.tk%3A6969&amp;tr=udp%3A%2F%2Fexodus.desync.com%3A6969","seeders":0,"leechers":1,"uploader":"TvTeam","files":4,"time":1440733097,"description":"------------------------------------------------------------------------\n\n &lt;a href=&quot; https://www.torrenting.com&quot; rel=&quot;nofollow&quot; target=&quot;_NEW&quot;&gt; https://www.torrenting.com&lt;/a&gt;\n\nSign up is OPEN - for time being. Come and have fun\n\n.......................................................................................................................P0STER\n[img]http://i.imgur.com/rjuG0xw.png[/img]\n\niMDB: http://www.imdb.com/title/tt2309260/\n\nGeneral\nComplete name               : The.Gallows.2015.WEBRiP.XViD.ReLeNTLesS.avi\nFormat                      : AVI\nFormat/Info                 : Audio Video Interleave\nFile size                   : 982 MiB\nDuration                    : 1h 20mn\nOverall bit rate            : 1 700 Kbps\n\nVideo\nID                          : 0\nFormat                      : MPEG-4 Visual\nFormat profile              : Advanced Simple@L5\nFormat settings, BVOP       : 1\nFormat settings, QPel       : No\nFormat settings, GMC        : No warppoints\nFormat settings, Matrix     : Default (H.263)\nMuxing mode                 : Packed bitstream\nCodec ID                    : XVID\nCodec ID/Hint               : XviD\nDuration                    : 1h 20mn\nBit rate                    : 1 500 Kbps\nWidth                       : 720 pixels\nHeight                      : 400 pixels\nDisplay aspect ratio        : 16:9\nFrame rate                  : 23.976 fps\nColor space                 : YUV\nChroma subsampling          : 4:2:0\nBit depth                   : 8 bits\nScan type                   : Progressive\nCompression mode            : Lossy\nBits/(Pixel*Frame)          : 0.217\nStream size                 : 866 MiB (88%)\nWriting library             : XviD 1.2.1 (UTC 2008-12-04)\n\nAudio\nID                          : 1\nFormat                      : AC-3\nFormat/Info                 : Audio Coding 3\nMode extension              : CM (complete main)\nFormat settings, Endianness : Big\nCodec ID                    : 2000\nDuration                    : 1h 20mn\nBit rate mode               : Constant\nBit rate                    : 192 Kbps\nChannel(s)                  : 2 channels\nChannel positions           : Front: L R\nSampling rate               : 48.0 KHz\nCompression mode            : Lossy\nStream size                 : 111 MiB (11%)\nAlignment                   : Aligned on interleaves\nInterleave, duration        : 64 ms (1.53 video frames)\nInterleave, preload duratio : 192 ms\nTitle                       : The.Gallows.2015.ReLeNTLesS.audio.2.0.English\nSample Included             : Yes\nSource                      : SRS Thanks\n\nPL0T\n20 years after a horrific accident during a small town school play, students at the school resurrect the failed show in a misguided attempt to honor the anniversary of the tragedy - but soon discover that some things are better left alone.\n\nCAST\nDirectors: Travis Cluff, Chris Lofing\nWriters: Travis Cluff, Chris Lofing\nStars: Reese Mishler, Pfeifer Brown, Ryan Shoos \n\nN0TE\nResized, Brightened and tweeked color then sharpened and muxed new audio.\n\nSCREENS\n[img]http://i.imgur.com/Le7diyn.png[/img]\n[img]http://i.imgur.com/GPZaocT.png[/img]\n[img]http://i.imgur.com/Y6AAmgH.png[/img]\n[img]http://i.imgur.com/bHL7ohe.png[/img]\n[img]http://i.imgur.com/enCxiP6.png[/img]\n[img]http://i.imgur.com/KYnMTnt.png[/img]\n\nTRAiLER\n\nGREETZ\n\n\nHIVE-CM8, Blackjesus, M0RPH, M00SE, MiLLENiUM,\n\nMANiX, TiTAN, Anonymous, TuX, \n\nACAB, KingStoner, FooKas, 4PlayHD, \n\nGodFather, Cld.... \n\nKeep up the good work guyz","torrent":{"xt":"urn:btih:2506f9187bc7b368d180ba7e88192cec0afba594","amp;dn":"The.Gallows.2015.WEBRiP.XViD.ReLeNTLesS","amp;tr":["udp%3A%2F%2Ftracker.openbittorrent.com%3A80","udp%3A%2F%2Fopen.demonii.com%3A1337","udp%3A%2F%2Ftracker.coppersurfer.tk%3A6969","udp%3A%2F%2Fexodus.desync.com%3A6969"],"infoHash":"2506f9187bc7b368d180ba7e88192cec0afba594","infoHashBuffer":{"type":"Buffer","data":[37,6,249,24,123,199,179,104,209,128,186,126,136,25,44,236,10,251,165,148]},"announce":[],"urlList":[]}}